<svg width="999" height="1142" viewBox="0 0 999 1142" fill="none" xmlns="http://www.w3.org/2000/svg">
<path d="M71.3274 1034.25C71.3274 1062.62 82.5996 1089.84 102.664 1109.9C122.729 1129.97 149.943 1141.24 178.318 1141.24H820.265C848.641 1141.24 875.854 1129.97 895.919 1109.9C915.984 1089.84 927.256 1062.62 927.256 1034.25V285.31H71.3274V1034.25ZM677.61 463.628C677.61 454.17 681.367 445.098 688.056 438.41C694.744 431.722 703.815 427.965 713.274 427.965C722.732 427.965 731.804 431.722 738.492 438.41C745.18 445.098 748.937 454.17 748.937 463.628V962.92C748.937 972.378 745.18 981.45 738.492 988.138C731.804 994.826 722.732 998.584 713.274 998.584C703.815 998.584 694.744 994.826 688.056 988.138C681.367 981.45 677.61 972.378 677.61 962.92V463.628ZM463.628 463.628C463.628 454.17 467.385 445.098 474.074 438.41C480.762 431.722 489.833 427.965 499.292 427.965C508.75 427.965 517.821 431.722 524.51 438.41C531.198 445.098 534.955 454.17 534.955 463.628V962.92C534.955 972.378 531.198 981.45 524.51 988.138C517.821 994.826 508.75 998.584 499.292 998.584C489.833 998.584 480.762 994.826 474.074 988.138C467.385 981.45 463.628 972.378 463.628 962.92V463.628ZM249.646 463.628C249.646 454.17 253.403 445.098 260.091 438.41C266.78 431.722 275.851 427.965 285.309 427.965C294.768 427.965 303.839 431.722 310.528 438.41C317.216 445.098 320.973 454.17 320.973 463.628V962.92C320.973 972.378 317.216 981.45 310.528 988.138C303.839 994.826 294.768 998.584 285.309 998.584C275.851 998.584 266.78 994.826 260.091 988.138C253.403 981.45 249.646 972.378 249.646 962.92V463.628ZM962.919 71.3278H695.442L674.489 29.6458C670.051 20.7347 663.214 13.2388 654.748 8.00151C646.281 2.7642 636.522 -0.00674927 626.566 0.000390801H371.794C361.861 -0.0377928 352.118 2.72282 343.682 7.96595C335.246 13.2091 328.457 20.7227 324.094 29.6458L303.141 71.3278H35.6637C26.2051 71.3278 17.1339 75.0852 10.4457 81.7734C3.75741 88.4616 0 97.5328 0 106.991L0 178.319C0 187.777 3.75741 196.849 10.4457 203.537C17.1339 210.225 26.2051 213.983 35.6637 213.983H962.919C972.378 213.983 981.449 210.225 988.138 203.537C994.826 196.849 998.583 187.777 998.583 178.319V106.991C998.583 97.5328 994.826 88.4616 988.138 81.7734C981.449 75.0852 972.378 71.3278 962.919 71.3278Z" fill="black"/>
</svg>
